<?xml version="1.0" encoding="UTF-8" standalone="no"?>
<!-- Generator: Adobe Illustrator 16.0.0, SVG Export Plug-In . SVG Version: 6.00 Build 0)  -->

<svg
   xmlns:dc="http://purl.org/dc/elements/1.1/"
   xmlns:cc="http://creativecommons.org/ns#"
   xmlns:rdf="http://www.w3.org/1999/02/22-rdf-syntax-ns#"
   xmlns:svg="http://www.w3.org/2000/svg"
   xmlns="http://www.w3.org/2000/svg"
   xmlns:sodipodi="http://sodipodi.sourceforge.net/DTD/sodipodi-0.dtd"
   xmlns:inkscape="http://www.inkscape.org/namespaces/inkscape"
   version="1.1"
   id="Capa_1"
   x="0px"
   y="0px"
   width="226.77"
   height="238"
   viewBox="0 0 226.77 238"
   enable-background="new 0 0 226.77 184.25"
   xml:space="preserve"
   inkscape:version="0.91 r13725"
   sodipodi:docname="logo_with_name_one_line.svg"
   inkscape:export-filename="/Users/lucas/Projects/kronrod.github.io/logo_with_name.png"
   inkscape:export-xdpi="90"
   inkscape:export-ydpi="90"><metadata
     id="metadata15"><rdf:RDF><cc:Work
         rdf:about=""><dc:format>image/svg+xml</dc:format><dc:type
           rdf:resource="http://purl.org/dc/dcmitype/StillImage" /><dc:title></dc:title></cc:Work></rdf:RDF></metadata><defs
     id="defs13" /><sodipodi:namedview
     pagecolor="#ffffff"
     bordercolor="#666666"
     borderopacity="1"
     objecttolerance="10"
     gridtolerance="10"
     guidetolerance="10"
     inkscape:pageopacity="0"
     inkscape:pageshadow="2"
     inkscape:window-width="1303"
     inkscape:window-height="755"
     id="namedview11"
     showgrid="false"
     inkscape:zoom="1.44"
     inkscape:cx="80.57184"
     inkscape:cy="111.67765"
     inkscape:window-x="0"
     inkscape:window-y="0"
     inkscape:window-maximized="0"
     inkscape:current-layer="Capa_1" /><path
     d="m 112.799,3.254 c 2.386,3.553 4.688,6.927 6.934,10.341 1.697,2.582 3.279,5.24 4.983,7.817 4.122,6.229 8.303,12.42 12.429,18.648 4.551,6.868 9.068,13.757 13.598,20.64 2.887,4.388 5.763,8.783 8.652,13.169 4.655,7.064 9.32,14.122 13.977,21.186 2.951,4.478 5.893,8.961 8.84,13.441 4.496,6.836 8.995,13.67 13.491,20.506 2.916,4.434 5.826,8.871 8.745,13.304 4.622,7.019 9.262,14.026 13.869,21.055 2.266,3.456 4.475,6.948 6.823,10.6 -74.488,0 -148.799,0 -223.294,0 0.82,-1.381 1.574,-2.757 2.427,-4.068 2.262,-3.479 4.579,-6.924 6.852,-10.396 4.787,-7.313 9.563,-14.633 14.335,-21.956 2.688,-4.124 5.351,-8.263 8.038,-12.386 4.771,-7.32 9.557,-14.629 14.326,-21.95 2.837,-4.356 5.647,-8.73 8.482,-13.088 4.524,-6.952 9.061,-13.896 13.588,-20.846 2.897,-4.448 5.784,-8.903 8.679,-13.354 4.524,-6.956 9.051,-13.909 13.577,-20.863 3.017,-4.635 6.046,-9.263 9.049,-13.907 3.542,-5.478 7.06,-10.97 10.591,-16.453 0.27,-0.419 0.571,-0.817 1.009,-1.44 z m 0.247,65.659 c 0.581,-0.621 1.054,-1.143 1.544,-1.649 2.114,-2.182 4.333,-4.271 6.318,-6.564 1.652,-1.909 3.356,-2.843 5.815,-1.631 0.583,0.287 1.287,0.317 1.922,0.511 2.467,0.754 4.914,1.575 7.395,2.276 2.74,0.774 5.51,1.443 8.76,2.287 -10.891,-17.135 -21.493,-33.816 -32.189,-50.644 -1.76,2.836 -3.435,5.557 -5.133,8.263 -2.764,4.402 -5.539,8.798 -8.318,13.19 -4.762,7.525 -9.529,15.047 -14.299,22.566 -2.016,3.178 -4.05,6.344 -6.067,9.521 -0.111,0.176 -0.138,0.405 -0.349,1.055 8.622,-5.751 16.861,-11.248 25.19,-16.805 3.205,6.002 6.277,11.754 9.411,17.624 z"
     id="path3"
     inkscape:connector-curvature="0"
     style="clip-rule:evenodd;fill:#c81517;fill-rule:evenodd" /><g
     id="g5"
     transform="translate(0,-4.25)"><g
       id="g7"><path
         d="m 143.747,115.783 c 0.928,-9.645 -6.626,-14.404 -16.768,-17.313 l 2.55,-13.129 -7.992,-1.552 -2.484,12.783 c -2.104,-0.408 -4.257,-0.784 -6.4,-1.156 l 2.502,-12.868 -7.987,-1.553 -2.555,13.127 c -1.737,-0.302 -3.442,-0.6 -5.101,-0.921 l 0.006,-0.04 -11.021,-2.146 -1.657,8.535 c 0,0 5.923,1.034 5.804,1.125 3.237,0.631 3.925,2.714 3.917,4.395 l -2.906,14.958 c 0.222,0.045 0.511,0.11 0.833,0.221 -0.265,-0.053 -0.551,-0.107 -0.844,-0.163 l -4.075,20.951 c -0.341,0.992 -1.256,2.502 -3.519,2.064 0.085,0.111 -5.811,-1.128 -5.811,-1.128 l -3.442,9.232 10.401,2.021 c 1.933,0.378 3.833,0.781 5.699,1.157 l -2.577,13.28 7.983,1.552 2.554,-13.137 c 2.185,0.47 4.302,0.901 6.373,1.303 l -2.543,13.075 7.993,1.552 2.578,-13.254 c 13.589,1.839 23.651,0.284 27.272,-12.104 2.918,-9.979 -0.98,-15.439 -8.254,-18.756 5.095,-1.458 8.802,-5.053 9.471,-12.111 z m -16.7,26.222 c -1.93,9.926 -18.699,5.496 -24.119,4.444 l 3.423,-17.592 c 5.417,1.053 22.708,2.797 20.696,13.148 z m 1.105,-25.545 c -1.757,9.027 -15.725,5.218 -20.236,4.341 l 3.101,-15.955 c 4.512,0.877 18.963,2.196 17.135,11.614 z"
         id="path9"
         inkscape:connector-curvature="0"
         style="fill:#ffffff" /></g></g><flowRoot
     xml:space="preserve"
     id="flowRoot4170"
     style="font-style:normal;font-weight:normal;font-size:40px;line-height:125%;font-family:sans-serif;letter-spacing:0px;word-spacing:0px;fill:#000000;fill-opacity:1;stroke:none;stroke-width:1px;stroke-linecap:butt;stroke-linejoin:miter;stroke-opacity:1"
     transform="translate(0,53.75)"><flowRegion
       id="flowRegion4172"><rect
         id="rect4174"
         width="246.52777"
         height="74.305557"
         x="123.61111"
         y="193.97223" /></flowRegion><flowPara
       id="flowPara4176" /></flowRoot><flowRoot
     xml:space="preserve"
     id="flowRoot4186"
     style="font-style:normal;font-weight:normal;font-size:23.75px;line-height:125%;font-family:sans-serif;text-align:center;letter-spacing:0px;word-spacing:0px;text-anchor:middle;fill:#c81517;fill-opacity:1;stroke:none;stroke-width:1px;stroke-linecap:butt;stroke-linejoin:miter;stroke-opacity:1"
     transform="translate(-95.666667,-24.166667)"><flowRegion
       id="flowRegion4188"><rect
         id="rect4190"
         width="393.75"
         height="52.777786"
         x="-0.69444442"
         y="209.25"
         style="font-size:23.75px;text-align:center;text-anchor:middle;fill:#c81517;fill-opacity:1" /></flowRegion><flowPara
       id="flowPara4192">Bitcoin Association Switzerland</flowPara></flowRoot></svg>