<?xml version="1.0" encoding="utf-8"?>
<!-- Generator: Adobe Illustrator 16.0.0, SVG Export Plug-In . SVG Version: 6.00 Build 0)  -->
<!DOCTYPE svg PUBLIC "-//W3C//DTD SVG 1.1//EN" "http://www.w3.org/Graphics/SVG/1.1/DTD/svg11.dtd">
<svg version="1.1" id="Capa_1" xmlns="http://www.w3.org/2000/svg" xmlns:xlink="http://www.w3.org/1999/xlink" x="0px" y="0px"
	 width="226.77px" height="184.25px" viewBox="0 0 226.77 184.25" enable-background="new 0 0 226.77 184.25" xml:space="preserve">
<path fill-rule="evenodd" clip-rule="evenodd" fill="#C81517" d="M112.799,7.504c2.386,3.553,4.688,6.927,6.934,10.341
	c1.697,2.582,3.279,5.24,4.983,7.817c4.122,6.229,8.303,12.42,12.429,18.648c4.551,6.868,9.068,13.757,13.598,20.64
	c2.887,4.388,5.763,8.783,8.652,13.169c4.655,7.064,9.32,14.122,13.977,21.186c2.951,4.478,5.893,8.961,8.84,13.441
	c4.496,6.836,8.995,13.67,13.491,20.506c2.916,4.434,5.826,8.871,8.745,13.304c4.622,7.019,9.262,14.026,13.869,21.055
	c2.266,3.456,4.475,6.948,6.823,10.6c-74.488,0-148.799,0-223.294,0c0.82-1.381,1.574-2.757,2.427-4.068
	c2.262-3.479,4.579-6.924,6.852-10.396c4.787-7.313,9.563-14.633,14.335-21.956c2.688-4.124,5.351-8.263,8.038-12.386
	c4.771-7.32,9.557-14.629,14.326-21.95c2.837-4.356,5.647-8.73,8.482-13.088c4.524-6.952,9.061-13.896,13.588-20.846
	c2.897-4.448,5.784-8.903,8.679-13.354c4.524-6.956,9.051-13.909,13.577-20.863c3.017-4.635,6.046-9.263,9.049-13.907
	c3.542-5.478,7.06-10.97,10.591-16.453C112.06,8.525,112.361,8.127,112.799,7.504z M113.046,73.163
	c0.581-0.621,1.054-1.143,1.544-1.649c2.114-2.182,4.333-4.271,6.318-6.564c1.652-1.909,3.356-2.843,5.815-1.631
	c0.583,0.287,1.287,0.317,1.922,0.511c2.467,0.754,4.914,1.575,7.395,2.276c2.74,0.774,5.51,1.443,8.76,2.287
	c-10.891-17.135-21.493-33.816-32.189-50.644c-1.76,2.836-3.435,5.557-5.133,8.263c-2.764,4.402-5.539,8.798-8.318,13.19
	c-4.762,7.525-9.529,15.047-14.299,22.566c-2.016,3.178-4.05,6.344-6.067,9.521c-0.111,0.176-0.138,0.405-0.349,1.055
	c8.622-5.751,16.861-11.248,25.19-16.805C106.84,61.541,109.912,67.293,113.046,73.163z"/>
<g>
	<g>
		<path fill="#FFFFFF" d="M143.747,115.783c0.928-9.645-6.626-14.404-16.768-17.313l2.55-13.129l-7.992-1.552l-2.484,12.783
			c-2.104-0.408-4.257-0.784-6.4-1.156l2.502-12.868l-7.987-1.553l-2.555,13.127c-1.737-0.302-3.442-0.6-5.101-0.921l0.006-0.04
			l-11.021-2.146l-1.657,8.535c0,0,5.923,1.034,5.804,1.125c3.237,0.631,3.925,2.714,3.917,4.395l-2.906,14.958
			c0.222,0.045,0.511,0.11,0.833,0.221c-0.265-0.053-0.551-0.107-0.844-0.163l-4.075,20.951c-0.341,0.992-1.256,2.502-3.519,2.064
			c0.085,0.111-5.811-1.128-5.811-1.128l-3.442,9.232l10.401,2.021c1.933,0.378,3.833,0.781,5.699,1.157l-2.577,13.28l7.983,1.552
			l2.554-13.137c2.185,0.47,4.302,0.901,6.373,1.303l-2.543,13.075l7.993,1.552l2.578-13.254
			c13.589,1.839,23.651,0.284,27.272-12.104c2.918-9.979-0.98-15.439-8.254-18.756C139.371,126.436,143.078,122.841,143.747,115.783
			z M127.047,142.005c-1.93,9.926-18.699,5.496-24.119,4.444l3.423-17.592C111.768,129.91,129.059,131.654,127.047,142.005z
			 M128.152,116.46c-1.757,9.027-15.725,5.218-20.236,4.341l3.101-15.955C115.529,105.723,129.98,107.042,128.152,116.46z"/>
	</g>
</g>
</svg>
